<?xml version="1.0" encoding="UTF-8"?>
<svg xmlns="http://www.w3.org/2000/svg" xmlns:xlink="http://www.w3.org/1999/xlink" width="512" height="512" viewBox="0 0 60 60" version="1.1"><!-- Generator: Sketch 51.3 (57544) - http://www.bohemiancoding.com/sketch --><title>020 - Moving House</title><desc>Created with Sketch.</desc><defs/><g id="Page-1" stroke="none" stroke-width="1" fill="none" fill-rule="evenodd"><g id="020---Moving-House" transform="translate(-1.000000, 0.000000)" fill-rule="nonzero"><path d="M6,9 L6,27 C6,27.5522847 6.44771525,28 7,28 L27,28 C27.5522847,28 28,27.5522847 28,27 L28,9 L17,5 L6,9 Z" id="Shape" fill="#CAD9FC"/><path d="M6,9 L6,27 C5.9655439,27.5136977 6.35074119,27.9595279 6.864,28 L24.136,28 C24.6492588,27.9595279 25.0344561,27.5136977 25,27 L25,9 L15.5,5 L6,9 Z" id="Shape" fill="#E8EDFC"/><path d="M14,21 L20,21 L20,25 C20,26.6568542 18.6568542,28 17,28 C15.3431458,28 14,26.6568542 14,25 L14,21 Z" id="Shape" fill="#E8EDFC" transform="translate(17.000000, 24.500000) rotate(-180.000000) translate(-17.000000, -24.500000) "/><path d="M20,14.667 L20,17.333 C20.0010983,17.700918 20.299082,17.9989017 20.667,18 L23.333,18 C23.4870583,18.0024252 23.6365996,17.9479494 23.753,17.847 C23.910472,17.7231485 24.0016863,17.5333341 24,17.333 L24,14.667 C23.9989017,14.299082 23.700918,14.0010983 23.333,14 L20.667,14 C20.299082,14.0010983 20.0010983,14.299082 20,14.667 Z" id="Shape" fill="#7FACFA"/><path d="M10,14.667 L10,17.333 C10.0010983,17.700918 10.299082,17.9989017 10.667,18 L13.333,18 C13.4870583,18.0024252 13.6365996,17.9479494 13.753,17.847 C13.910472,17.7231485 14.0016863,17.5333341 14,17.333 L14,14.667 C13.9989017,14.299082 13.700918,14.0010983 13.333,14 L10.667,14 C10.299082,14.0010983 10.0010983,14.299082 10,14.667 Z" id="Shape" fill="#7FACFA"/><path d="M28,7 L28,1.019 C28.0049945,0.461570276 27.557425,0.00549695313 27,0 L25,0 C24.442575,0.00549695313 23.9950055,0.461570276 24,1.019 L24,4.83 L28,7 Z" id="Shape" fill="#E8EDFC"/><path d="M2,10.32 C1.99599553,11.0957499 2.40084914,11.8162691 3.06551443,12.2162991 C3.73017972,12.6163291 4.55639879,12.6367334 5.24,12.27 L17,6 L28.76,12.27 C29.4436012,12.6367334 30.2698203,12.6163291 30.9344856,12.2162991 C31.5991509,11.8162691 32.0040045,11.0957499 32,10.32 C31.9990068,10.063597 31.9515743,9.80949453 31.86,9.57 C31.6766579,9.05901278 31.309415,8.63472243 30.83,8.38 L17,1 L3.17,8.38 C2.690585,8.63472243 2.32334208,9.05901278 2.14,9.57 C2.04842568,9.80949453 2.00099322,10.063597 2,10.32 Z" id="Shape" fill="#E8EDFC"/><path d="M20,15.267 L20,17.333 C20.0010983,17.700918 20.299082,17.9989017 20.667,18 L23.333,18 C23.4870583,18.0024252 23.6365996,17.9479494 23.753,17.847 C23.2397344,16.2295506 21.6939801,15.1669218 20,15.267 Z" id="Shape" fill="#A4C2F7"/><path d="M10,15.267 L10,17.333 C10.0010983,17.700918 10.299082,17.9989017 10.667,18 L13.333,18 C13.4870583,18.0024252 13.6365996,17.9479494 13.753,17.847 C13.2397344,16.2295506 11.6939801,15.1669218 10,15.267 Z" id="Shape" fill="#A4C2F7"/><path d="M56,40 L56,58 C56,58.5522847 55.5522847,59 55,59 L35,59 C34.4477153,59 34,58.5522847 34,58 L34,40 L45,36 L56,40 Z" id="Shape" fill="#CAD9FC"/><path d="M53,40 L53,58 C53.0344561,58.5136977 52.6492588,58.9595279 52.136,59 L34.864,59 C34.3507412,58.9595279 33.9655439,58.5136977 34,58 L34,40 L43.5,36 L53,40 Z" id="Shape" fill="#E8EDFC"/><path d="M45,52 C46.6568542,52 48,53.3431458 48,55 L48,59 L42,59 L42,55 C42,53.3431458 43.3431458,52 45,52 Z" id="Shape" fill="#E8EDFC"/><path d="M42,45.667 L42,48.333 C41.9989017,48.700918 41.700918,48.9989017 41.333,49 L38.667,49 C38.5129417,49.0024252 38.3634004,48.9479494 38.247,48.847 C38.089528,48.7231485 37.9983137,48.5333341 38,48.333 L38,45.667 C38.0010983,45.299082 38.299082,45.0010983 38.667,45 L41.333,45 C41.700918,45.0010983 41.9989017,45.299082 42,45.667 Z" id="Shape" fill="#7FACFA"/><path d="M52,45.667 L52,48.333 C51.9989017,48.700918 51.700918,48.9989017 51.333,49 L48.667,49 C48.5129417,49.0024252 48.3634004,48.9479494 48.247,48.847 C48.089528,48.7231485 47.9983137,48.5333341 48,48.333 L48,45.667 C48.0010983,45.299082 48.299082,45.0010983 48.667,45 L51.333,45 C51.700918,45.0010983 51.9989017,45.299082 52,45.667 Z" id="Shape" fill="#7FACFA"/><path d="M34,38 L34,32.019 C33.9950055,31.4615703 34.442575,31.005497 35,31 L37,31 C37.557425,31.005497 38.0049945,31.4615703 38,32.019 L38,35.83 L34,38 Z" id="Shape" fill="#E8EDFC"/><path d="M29.464,51.6 C29.5899029,51.6944272 29.664,51.8426213 29.664,52 C29.664,52.1573787 29.5899029,52.3055728 29.464,52.4 L26.91,54.31 L26.68,54.49 L22.8,57.4 C22.6484912,57.5136316 22.4457852,57.5319096 22.2763932,57.4472136 C22.1070012,57.3625176 22,57.189386 22,57 L22,55.28 C21.9961718,55.0292103 21.8071291,54.8200658 21.558,54.791 C7.822,53.144 2.762,41.653 2.02,35.35 C1.82393894,33.7041915 2.99919147,32.2110611 4.64500001,32.015 C6.29080854,31.818939 7.78393889,32.9941915 7.98,34.64 C8.049,35.211 9.666,46.74 21.413,48.711 C21.5594082,48.7340496 21.7085815,48.6920105 21.8214101,48.5959044 C21.9342386,48.4997983 21.9994692,48.3592106 22,48.211 L22,47 C22,46.810614 22.1070012,46.6374824 22.2763932,46.5527864 C22.4457852,46.4680904 22.6484912,46.4863684 22.8,46.6 L26.68,49.51 L26.91,49.69 L29.464,51.6 Z" id="Shape" fill="#A4C2F7"/><path d="M59.4,21.8 L56.49,25.68 L56.31,25.91 L54.4,28.46 C54.3055728,28.5859029 54.1573787,28.66 54,28.66 C53.8426213,28.66 53.6944272,28.5859029 53.6,28.46 L52.75,27.33 L51.69,25.91 L51.51,25.68 L48.6,21.8 C48.4863684,21.6484912 48.4680904,21.4457852 48.5527864,21.2763932 C48.6374824,21.1070012 48.810614,21 49,21 L50.21,21 C50.3587077,20.9992659 50.4996572,20.9335356 50.5958012,20.8200857 C50.6919451,20.7066359 50.7336668,20.5568142 50.71,20.41 C48.74,8.67 37.21,7.05 36.64,6.98 C35.2666948,6.81182955 34.1865062,5.72628966 34.0251243,4.35217021 C33.8637424,2.97805075 34.6630273,1.67177821 35.96,1.19 C36.4028587,1.0221269 36.8797371,0.963803635 37.35,1.02 C43.65,1.76 55.14,6.82 56.79,20.56 C56.8200416,20.8087098 57.0295029,20.9967974 57.28,21 L59,21 C59.189386,21 59.3625176,21.1070012 59.4472136,21.2763932 C59.5319096,21.4457852 59.5136316,21.6484912 59.4,21.8 Z" id="Shape" fill="#7FACFA"/><path d="M56.9,21.8 L53.99,25.68 L53.81,25.91 L52.75,27.33 L51.69,25.91 L51.51,25.68 L48.6,21.8 C48.4863684,21.6484912 48.4680904,21.4457852 48.5527864,21.2763932 C48.6374824,21.1070012 48.810614,21 49,21 L50.21,21 C50.3587077,20.9992659 50.4996572,20.9335356 50.5958012,20.8200857 C50.6919451,20.7066359 50.7336668,20.5568142 50.71,20.41 C48.74,8.67 37.21,7.05 36.64,6.98 C35.2666948,6.81182955 34.1865062,5.72628966 34.0251243,4.35217021 C33.8637424,2.97805075 34.6630273,1.67177821 35.96,1.19 C42.41,2.35 52.73,7.59 54.29,20.56 C54.3200416,20.8087098 54.5295029,20.9967974 54.78,21 L56.5,21 C56.689386,21 56.8625176,21.1070012 56.9472136,21.2763932 C57.0319096,21.4457852 57.0136316,21.6484912 56.9,21.8 Z" id="Shape" fill="#A4C2F7"/><path d="M60,41.32 C60.0040045,42.0957499 59.5991509,42.8162691 58.9344856,43.2162991 C58.2698203,43.6163291 57.4436012,43.6367334 56.76,43.27 L45,37 L33.24,43.27 C32.5563988,43.6367334 31.7301797,43.6163291 31.0655144,43.2162991 C30.4008491,42.8162691 29.9959955,42.0957499 30,41.32 C30.0009932,41.063597 30.0484257,40.8094945 30.14,40.57 C30.3233421,40.0590128 30.690585,39.6347224 31.17,39.38 L45,32 L58.83,39.38 C59.309415,39.6347224 59.6766579,40.0590128 59.86,40.57 C59.9515743,40.8094945 59.9990068,41.063597 60,41.32 Z" id="Shape" fill="#E8EDFC"/><path d="M42,46.267 L42,48.333 C41.9989017,48.700918 41.700918,48.9989017 41.333,49 L38.667,49 C38.5129417,49.0024252 38.3634004,48.9479494 38.247,48.847 C38.7602656,47.2295506 40.3060199,46.1669218 42,46.267 Z" id="Shape" fill="#A4C2F7"/><path d="M52,46.267 L52,48.333 C51.9989017,48.700918 51.700918,48.9989017 51.333,49 L48.667,49 C48.5129417,49.0024252 48.3634004,48.9479494 48.247,48.847 C48.7602656,47.2295506 50.3060199,46.1669218 52,46.267 Z" id="Shape" fill="#A4C2F7"/><path d="M4.21,12.53 C4.56948906,12.5293439 4.92326817,12.4400405 5.24,12.27 L5.77,11.988 C5.27902584,11.5734328 4.9970388,10.9625829 5,10.32 C4.95499844,9.54732135 4.95499844,8.77267865 5,8 C5.18,7.5 5.68,7.26 6.67,7 L17,1 L17.5,1 L3.17,8.38 C2.690585,8.63472243 2.32334208,9.05901278 2.14,9.57 C2.04842568,9.80949453 2.00099322,10.063597 2,10.32 C1.99732595,10.9069441 2.22930578,11.4706213 2.64434225,11.8856577 C3.05937872,12.3006942 3.62305588,12.532674 4.21,12.53 Z" id="Shape" fill="#FFFFFF"/><path d="M4.65,32.02 C3.85960087,32.112703 3.13842232,32.5156581 2.64517728,33.1401851 C2.15193224,33.764712 1.9270423,34.5596308 2.02,35.35 C2.762,41.65 7.82,53.144 21.558,54.791 C21.8071291,54.8200658 21.9961718,55.0292103 22,55.28 L22,57 C22,57.412 22.47,58.857 22.8,58.609 L23.442,56.959 L23.442,56.489 C23.4381718,56.2382103 23.2491291,56.0290658 23,56 C9.264,54.354 5.762,41.653 5.02,35.35 C4.8832027,34.1648592 5.45997272,33.0109268 6.49,32.409 C5.9346554,32.0843257 5.28923314,31.947875 4.65,32.02 Z" id="Shape" fill="#FFFFFF"/><path d="M6.864,28 L9.864,28 C9.35074119,27.9595279 8.9655439,27.5136977 9,27 L9,10.335 L8.24,10.735 C7.92371794,10.9067801 7.56991377,10.9978073 7.21,11 C6.775,11 6.355,12.4 6,12.17 L6,27 C5.9655439,27.5136977 6.35074119,27.9595279 6.864,28 Z" id="Shape" fill="#FFFFFF"/><polygon id="Shape" fill="#FFFFFF" points="7 11.86 7 24.86 7 27 5 27 5 24.86 5 11.86"/><path d="M6,20.86 C6.40626507,20.8623626 6.77358004,20.6186962 6.92937095,20.2434815 C7.08516186,19.8682668 6.99845995,19.4360905 6.71,19.15 L6.56,19.03 C6.50427287,18.9921227 6.44373808,18.9618554 6.38,18.94 C6.32333758,18.9111123 6.26266255,18.8908873 6.2,18.88 C6.13385548,18.8688692 6.06703885,18.8621875 6,18.86 C5.73527314,18.8638804 5.48174298,18.967435 5.29,19.15 C5.19960316,19.2456071 5.12832305,19.3576187 5.08,19.48 C4.92912342,19.8529737 5.01135194,20.2797788 5.29,20.57 C5.38560709,20.6603968 5.49761868,20.731677 5.62,20.78 C5.74022231,20.831241 5.86932274,20.85842 6,20.86 Z" id="Shape" fill="#428DFF"/><path d="M2.557,13.073 C3.29085478,13.5142263 4.17178135,13.6404335 5,13.423 L5,15.86 C5,16.4122847 5.44771525,16.86 6,16.86 C6.55228475,16.86 7,16.4122847 7,15.86 L7,12.467 L17,7.133 L27,12.467 L27,27 L21,27 L21,24 C21,21.790861 19.209139,20 17,20 C14.790861,20 13,21.790861 13,24 L13,27 L7,27 L7,23.86 C7,23.3077153 6.55228475,22.86 6,22.86 C5.44771525,22.86 5,23.3077153 5,23.86 L5,27 C5,28.1045695 5.8954305,29 7,29 L27,29 C28.1045695,29 29,28.1045695 29,27 L29,13.428 C29.9585672,13.6755011 30.9777157,13.46539 31.7602297,12.8589416 C32.5427438,12.2524932 33.0004992,11.3180039 33,10.328 C33.0004965,9.14332855 32.346457,8.05531469 31.3,7.5 L29,6.267 L29,2 C29,0.8954305 28.1045695,6.76353751e-17 27,0 L25,0 C23.8954305,-6.76353751e-17 23,0.8954305 23,2 L23,3.067 L17.471,0.118 C17.1766639,-0.0391557201 16.8233361,-0.0391557201 16.529,0.118 L2.7,7.5 C1.68091177,8.04367962 1.03305457,9.09351042 1.00407369,10.2481915 C0.975092804,11.4028726 1.5694689,12.4838817 2.56,13.078 L2.557,13.073 Z M15,27 L15,24 C15,22.8954305 15.8954305,22 17,22 C18.1045695,22 19,22.8954305 19,24 L19,27 L15,27 Z M25,2 L27,2 L27,5.2 L25,4.133 L25,2 Z M3.639,9.259 L17,2.133 L23.591,5.649 L23.619,5.663 L30.361,9.263 C30.7532107,9.47192621 30.9987463,9.87961527 31,10.324 C30.9998596,10.7474448 30.7776506,11.1397945 30.4145677,11.3576852 C30.0514848,11.5755759 29.6007269,11.5870823 29.227,11.388 L28.409,10.952 C28.399,10.947 28.391,10.941 28.381,10.937 L17.471,5.118 C17.1766639,4.96084428 16.8233361,4.96084428 16.529,5.118 L4.773,11.388 C4.39927314,11.5870823 3.94851516,11.5755759 3.58543228,11.3576852 C3.2223494,11.1397945 3.00014037,10.7474448 3,10.324 C2.99977817,9.87817906 3.24552419,9.46860235 3.639,9.259 Z" id="Shape" fill="#428DFF"/><path d="M13,19 C14.1045695,19 15,18.1045695 15,17 L15,15 C15,13.8954305 14.1045695,13 13,13 L11,13 C9.8954305,13 9,13.8954305 9,15 L9,17 C9,18.1045695 9.8954305,19 11,19 L13,19 Z M11,15 L13,15 L13,17 L11,17 L11,15 Z" id="Shape" fill="#428DFF"/><path d="M23,19 C24.1045695,19 25,18.1045695 25,17 L25,15 C25,13.8954305 24.1045695,13 23,13 L21,13 C19.8954305,13 19,13.8954305 19,15 L19,17 C19,18.1045695 19.8954305,19 21,19 L23,19 Z M21,15 L23,15 L23,17 L21,17 L21,15 Z" id="Shape" fill="#428DFF"/><path d="M35,60 L55,60 C56.1045695,60 57,59.1045695 57,58 L57,44.428 C57.9585672,44.6755011 58.9777157,44.46539 59.7602297,43.8589416 C60.5427438,43.2524932 61.0004992,42.3180039 61,41.328 C61.0008668,40.1429696 60.3467744,39.0544828 59.3,38.499 L45.471,31.118 C45.1766639,30.9608443 44.8233361,30.9608443 44.529,31.118 L39,34.067 L39,32 C39,30.8954305 38.1045695,30 37,30 L35,30 C33.8954305,30 33,30.8954305 33,32 L33,37.267 L30.7,38.495 C29.6809118,39.0386796 29.0330546,40.0885104 29.0040737,41.2431915 C28.9750928,42.3978726 29.5694689,43.4788817 30.56,44.073 C31.2935426,44.5151029 32.1748348,44.6413626 33.003,44.423 L33.003,58 C33.0029988,59.103399 33.8966023,59.9983449 35,60 Z M43,58 L43,55 C43,53.8954305 43.8954305,53 45,53 C46.1045695,53 47,53.8954305 47,55 L47,58 L43,58 Z M49,58 L49,55 C49,52.790861 47.209139,51 45,51 C42.790861,51 41,52.790861 41,55 L41,58 L35,58 L35,43.467 L45,38.133 L55,43.467 L55,58 L49,58 Z M35,32 L37,32 L37,35.133 L35,36.2 L35,32 Z M31.585,42.357 C31.2183773,42.1429681 30.994983,41.7484958 31,41.324 C30.9997782,40.8781791 31.2455242,40.4686024 31.639,40.259 L38.381,36.659 L38.409,36.645 L45,33.133 L58.361,40.259 C58.7544758,40.4686024 59.0002218,40.8781791 59,41.324 C58.9998596,41.7474448 58.7776506,42.1397945 58.4145677,42.3576852 C58.0514848,42.5755759 57.6007269,42.5870823 57.227,42.388 L56.409,41.952 C56.399,41.952 56.391,41.941 56.381,41.937 L45.471,36.118 C45.1766639,35.9608443 44.8233361,35.9608443 44.529,36.118 L33.619,41.937 C33.609,41.937 33.601,41.947 33.591,41.951 L32.773,42.388 C32.4003187,42.592385 31.9465148,42.5805433 31.585,42.357 Z" id="Shape" fill="#428DFF"/><path d="M41,44 L39,44 C37.8954305,44 37,44.8954305 37,46 L37,48 C37,49.1045695 37.8954305,50 39,50 L41,50 C42.1045695,50 43,49.1045695 43,48 L43,46 C43,44.8954305 42.1045695,44 41,44 Z M39,48 L39,46 L41,46 L41,48 L39,48 Z" id="Shape" fill="#428DFF"/><path d="M51,44 L49,44 C47.8954305,44 47,44.8954305 47,46 L47,48 C47,49.1045695 47.8954305,50 49,50 L51,50 C52.1045695,50 53,49.1045695 53,48 L53,46 C53,44.8954305 52.1045695,44 51,44 Z M49,48 L49,46 L51,46 L51,48 L49,48 Z" id="Shape" fill="#428DFF"/><path d="M21.553,58.9 C21.8927613,59.0677128 22.2981287,59.0289957 22.6,58.8 L30.6,52.8 C30.8518058,52.6111456 31,52.3147573 31,52 C31,51.6852427 30.8518058,51.3888544 30.6,51.2 L22.6,45.2 C22.2969824,44.9727368 21.8915704,44.9361808 21.5527864,45.1055728 C21.2140024,45.2749648 21,45.6212279 21,46 L21,47.617 C10.407,45.478 9.028,34.982 8.973,34.519 C8.70097071,32.3355782 6.72226497,30.7778547 4.536,31.026 C3.48133475,31.1487818 2.51876027,31.6858521 1.86037325,32.5188711 C1.20198622,33.3518901 0.901814912,34.4124991 1.026,35.467 C1.762,41.714 6.89,53.8 21,55.727 L21,58 C20.9979212,58.3808256 21.2123306,58.7297741 21.553,58.9 Z M3.013,35.235 C2.95087971,34.707329 3.1012755,34.1766262 3.431,33.76 C3.75728021,33.3414198 4.23857774,33.0721095 4.766,33.013 C5.85979633,32.8877217 6.85050151,33.6665472 6.987,34.759 C7.052,35.298 8.72,47.993 21.864,49.791 C22.1504398,49.8317278 22.4403255,49.7447255 22.657,49.553 C22.8746852,49.3632921 22.9997427,49.0887488 23,48.8 L23,48 L28.33,52 L23,56 L23,54.84 C23.0025832,54.3245219 22.6129013,53.891542 22.1,53.84 C8.572,52.451 3.7,41.061 3.013,35.235 Z" id="Shape" fill="#428DFF"/><path d="M37.465,0.027 C36.4111286,-0.0966422504 35.3513133,0.203522288 34.5187963,0.861433895 C33.6862793,1.5193455 33.1492871,2.48108704 33.026,3.535 C32.7784513,5.72199996 34.3369119,7.7009551 36.521,7.973 C36.981,8.028 47.479,9.414 49.621,20 L48,20 C47.6212279,20 47.2749648,20.2140024 47.1055728,20.5527864 C46.9361808,20.8915704 46.9727368,21.2969824 47.2,21.6 L53.2,29.6 C53.3888544,29.8518058 53.6852427,30 54,30 C54.3147573,30 54.6111456,29.8518058 54.8,29.6 L60.8,21.6 C61.0272632,21.2969824 61.0638192,20.8915704 60.8944272,20.5527864 C60.7250352,20.2140024 60.3787721,20 60,20 L57.728,20 C55.8,5.89 43.714,0.762 37.465,0.027 Z M56.84,22 L58,22 L54,27.33 L50,22 L50.8,22 C51.0889868,22.0000841 51.36388,21.8751463 51.5538532,21.6573768 C51.7438264,21.4396073 51.8303022,21.1503018 51.791,20.864 C49.994,7.729 37.3,6.052 36.761,5.987 C35.6681695,5.84997566 34.8888823,4.85937152 35.013,3.765 C35.0723678,3.23793728 35.341653,2.75704515 35.76,2.431 C36.1758583,2.10204989 36.7053232,1.95169913 37.232,2.013 C43.061,2.7 54.45,7.572 55.845,21.1 C55.8963565,21.610991 56.3264347,22.0000065 56.84,22 Z" id="Shape" fill="#428DFF"/></g></g></svg>
